# xmcd
#
# Track frame offsets: 
#        150
#        12707
#        24530
#        36313
#        48885
#        61631
#        79586
#        92106
#        105527
#        115124
#        129287
#        143495
#        155177
#        171835
#        181726
#        194388
#        204960
#        215858
#        227254
#        239860
#        249232
#        259953
#        268259
#        280807
#        296088
#
# Disc length: 4097 seconds
#
# Revision: 0
# Processed by: cddbd v1.5.2PL0 Copyright (c) Steve Scherf et al.
# Submitted via: ExactAudioCopyFreeDBPlugin 1.0
#
DISCID=680fff19
DTITLE=Various Artist - Fifty Country Greats [CD-2)
DYEAR=2012
DGENRE=Country
TTITLE0=Johnny Cash and The Tennessee Two - Folsom Prison Blues
TTITLE1=Waylon Jennings - Crying
TTITLE2=Tennessee Ernie Ford - Sixteen Tons
TTITLE3=Billie Jo Spears - Chevrolet
TTITLE4=Patsy Cline - I Fall To ~Pieces
TTITLE5=Kenny Rogers - Something's Burning
TTITLE6=George Jones - White Lightening
TTITLE7=Jimmy Dean - Big Bad John
TTITLE8=Skeeter Davis - Am I That Easy To Forget?
TTITLE9=Willie Nelson - So Much To Do
TTITLE10=Frankie Laine - Don't Fence Me In
TTITLE11=Kitty Wells - Heartbreak U.S.A.
TTITLE12=Lynn Anderson - Blue Bayou
TTITLE13=Dolly Parton - Release Me
TTITLE14=Johnny Horton - North To Alaska
TTITLE15=Jim Reeves - He'll Have To Go
TTITLE16=Don Williams - Always something There To Remind Me
TTITLE17=Eddy Arnold and His Tennessee Plowboys - Cattle Call
TTITLE18=Hank Snow, The Singing Rangers and His Rainbow Ranch Boys - I'm
TTITLE18=Moving On
TTITLE19=Burl Ives - A Little Bitty Tear
TTITLE20=Billie Jo Spears - Misty Blue
TTITLE21=Slim Whitman - Have ~You Ever Been Lonely?
TTITLE22=Roy Acuff and His Smokey Mountain Boys - Wabash Cannon Ball
TTITLE23=Kenny Rogers - For The Good Times
TTITLE24=Don Gibson - Oh Lonesome Me
EXTD=
EXTT0=
EXTT1=
EXTT2=
EXTT3=
EXTT4=
EXTT5=
EXTT6=
EXTT7=
EXTT8=
EXTT9=
EXTT10=
EXTT11=
EXTT12=
EXTT13=
EXTT14=
EXTT15=
EXTT16=
EXTT17=
EXTT18=
EXTT19=
EXTT20=
EXTT21=
EXTT22=
EXTT23=
EXTT24=
PLAYORDER=
